<mxfile>
    <diagram id="ipVfQRUJWiWLe4ffgoO9" name="第 1 页">
        <mxGraphModel dx="868" dy="575" grid="0" gridSize="10" guides="1" tooltips="1" connect="1" arrows="1" fold="1" page="0" pageScale="1" pageWidth="827" pageHeight="1169" background="#ffffff" math="0" shadow="0">
            <root>
                <mxCell id="0"/>
                <mxCell id="1" parent="0"/>
                <mxCell id="7" style="edgeStyle=orthogonalEdgeStyle;rounded=0;orthogonalLoop=1;jettySize=auto;html=1;exitX=0.5;exitY=1;exitDx=0;exitDy=0;entryX=0.5;entryY=0;entryDx=0;entryDy=0;strokeColor=#000000;" parent="1" source="2" target="3" edge="1">
                    <mxGeometry relative="1" as="geometry"/>
                </mxCell>
                <mxCell id="2" value="&lt;p&gt;&lt;font color=&quot;#000000&quot; size=&quot;1&quot;&gt;&lt;span style=&quot;background-color: rgb(255 , 255 , 255) ; font-size: 12px&quot;&gt;填写预约信息&lt;/span&gt;&lt;/font&gt;&lt;/p&gt;" style="rounded=1;whiteSpace=wrap;html=1;fillColor=none;shadow=0;sketch=0;glass=1;strokeColor=#000000;" parent="1" vertex="1">
                    <mxGeometry x="306" y="36" width="120" height="60" as="geometry"/>
                </mxCell>
                <mxCell id="3" value="&lt;font color=&quot;#000000&quot; style=&quot;font-size: 12px&quot;&gt;服务器&lt;/font&gt;" style="whiteSpace=wrap;html=1;aspect=fixed;shadow=0;glass=1;sketch=0;labelBackgroundColor=none;fillColor=none;strokeColor=#000000;" parent="1" vertex="1">
                    <mxGeometry x="326" y="153" width="80" height="80" as="geometry"/>
                </mxCell>
                <mxCell id="5" value="&lt;font color=&quot;#000000&quot; style=&quot;font-size: 12px&quot;&gt;数据库&lt;/font&gt;" style="shape=cylinder3;whiteSpace=wrap;html=1;boundedLbl=1;backgroundOutline=1;size=15;shadow=0;glass=1;labelBackgroundColor=none;sketch=0;fillColor=none;strokeColor=#000000;" parent="1" vertex="1">
                    <mxGeometry x="336" y="298" width="60" height="80" as="geometry"/>
                </mxCell>
                <mxCell id="6" value="" style="endArrow=classic;html=1;exitX=0.7;exitY=0;exitDx=0;exitDy=0;exitPerimeter=0;entryX=0.65;entryY=1.02;entryDx=0;entryDy=0;strokeColor=#000000;entryPerimeter=0;" parent="1" source="5" target="3" edge="1">
                    <mxGeometry width="50" height="50" relative="1" as="geometry">
                        <mxPoint x="388" y="254" as="sourcePoint"/>
                        <mxPoint x="438" y="204" as="targetPoint"/>
                    </mxGeometry>
                </mxCell>
                <mxCell id="8" value="" style="endArrow=classic;html=1;strokeColor=#000000;entryX=0.313;entryY=-0.002;entryDx=0;entryDy=0;entryPerimeter=0;exitX=0.36;exitY=1;exitDx=0;exitDy=0;exitPerimeter=0;" parent="1" source="3" target="5" edge="1">
                    <mxGeometry width="50" height="50" relative="1" as="geometry">
                        <mxPoint x="388" y="254" as="sourcePoint"/>
                        <mxPoint x="438" y="204" as="targetPoint"/>
                        <Array as="points"/>
                    </mxGeometry>
                </mxCell>
                <mxCell id="9" value="&lt;font style=&quot;font-size: 12px&quot; color=&quot;#000000&quot;&gt;提交到服务器&lt;/font&gt;" style="whiteSpace=wrap;html=1;shadow=0;glass=1;labelBackgroundColor=none;sketch=0;fillColor=none;strokeColor=none;" parent="1" vertex="1">
                    <mxGeometry x="371" y="110" width="108" height="30" as="geometry"/>
                </mxCell>
                <mxCell id="11" value="&lt;font color=&quot;#000000&quot; style=&quot;font-size: 12px&quot;&gt;进行数据库读写操作&lt;/font&gt;" style="text;html=1;align=center;verticalAlign=middle;resizable=0;points=[];autosize=1;" parent="1" vertex="1">
                    <mxGeometry x="385" y="259" width="118" height="18" as="geometry"/>
                </mxCell>
                <mxCell id="13" value="&lt;font color=&quot;#000000&quot; style=&quot;font-size: 12px&quot;&gt;返回到用户预约成功&lt;/font&gt;" style="rounded=1;whiteSpace=wrap;html=1;shadow=0;glass=1;labelBackgroundColor=none;sketch=0;fillColor=none;strokeColor=#000000;" parent="1" vertex="1">
                    <mxGeometry x="182" y="161" width="78" height="60" as="geometry"/>
                </mxCell>
                <mxCell id="14" value="" style="endArrow=classic;html=1;strokeColor=#000000;entryX=1;entryY=0.5;entryDx=0;entryDy=0;exitX=0;exitY=0.5;exitDx=0;exitDy=0;" parent="1" source="3" target="13" edge="1">
                    <mxGeometry width="50" height="50" relative="1" as="geometry">
                        <mxPoint x="388" y="233" as="sourcePoint"/>
                        <mxPoint x="438" y="183" as="targetPoint"/>
                    </mxGeometry>
                </mxCell>
            </root>
        </mxGraphModel>
    </diagram>
</mxfile>